<mxfile host="app.diagrams.net" agent="Mozilla/5.0 (Windows NT 10.0; Win64; x64; rv:132.0) Gecko/20100101 Firefox/132.0" version="24.8.6">
  <diagram name="Page-1" id="aFCg7NFVabs5uoirMCVZ">
    <mxGraphModel dx="1502" dy="985" grid="1" gridSize="10" guides="1" tooltips="1" connect="1" arrows="1" fold="1" page="1" pageScale="1" pageWidth="850" pageHeight="1100" math="0" shadow="0">
      <root>
        <mxCell id="0" />
        <mxCell id="1" parent="0" />
        <mxCell id="ELETVQiaOp1bO45lzPS6-1" value="" style="rounded=0;whiteSpace=wrap;html=1;" vertex="1" parent="1">
          <mxGeometry x="570" y="310" width="1920" height="1080" as="geometry" />
        </mxCell>
        <mxCell id="ELETVQiaOp1bO45lzPS6-2" value="" style="rounded=0;whiteSpace=wrap;html=1;" vertex="1" parent="1">
          <mxGeometry x="570" y="310" width="1920" height="60" as="geometry" />
        </mxCell>
        <mxCell id="ELETVQiaOp1bO45lzPS6-4" value="&lt;font style=&quot;font-size: 30px;&quot;&gt;OpenVoice&lt;/font&gt;" style="text;html=1;align=center;verticalAlign=middle;resizable=0;points=[];autosize=1;strokeColor=none;fillColor=none;" vertex="1" parent="1">
          <mxGeometry x="1445" y="315" width="170" height="50" as="geometry" />
        </mxCell>
        <mxCell id="ELETVQiaOp1bO45lzPS6-5" value="" style="rounded=0;whiteSpace=wrap;html=1;" vertex="1" parent="1">
          <mxGeometry x="570" y="370" width="1920" height="60" as="geometry" />
        </mxCell>
        <mxCell id="ELETVQiaOp1bO45lzPS6-6" value="ca" style="rounded=1;whiteSpace=wrap;html=1;" vertex="1" parent="1">
          <mxGeometry x="1510" y="382.5" width="960" height="35" as="geometry" />
        </mxCell>
        <mxCell id="ELETVQiaOp1bO45lzPS6-7" value="X" style="text;html=1;align=center;verticalAlign=middle;resizable=0;points=[];autosize=1;strokeColor=none;fillColor=none;" vertex="1" parent="1">
          <mxGeometry x="2085" y="118" width="30" height="30" as="geometry" />
        </mxCell>
        <mxCell id="ELETVQiaOp1bO45lzPS6-10" value="" style="group" vertex="1" connectable="0" parent="1">
          <mxGeometry x="2450" y="330" width="20" height="20" as="geometry" />
        </mxCell>
        <mxCell id="ELETVQiaOp1bO45lzPS6-8" value="" style="endArrow=none;html=1;rounded=0;" edge="1" parent="ELETVQiaOp1bO45lzPS6-10">
          <mxGeometry width="50" height="50" relative="1" as="geometry">
            <mxPoint y="20" as="sourcePoint" />
            <mxPoint x="20" as="targetPoint" />
          </mxGeometry>
        </mxCell>
        <mxCell id="ELETVQiaOp1bO45lzPS6-9" value="" style="endArrow=none;html=1;rounded=0;" edge="1" parent="ELETVQiaOp1bO45lzPS6-10">
          <mxGeometry width="50" height="50" relative="1" as="geometry">
            <mxPoint as="sourcePoint" />
            <mxPoint x="20" y="20" as="targetPoint" />
          </mxGeometry>
        </mxCell>
        <mxCell id="ELETVQiaOp1bO45lzPS6-15" value="" style="endArrow=none;html=1;rounded=0;" edge="1" parent="1">
          <mxGeometry width="50" height="50" relative="1" as="geometry">
            <mxPoint x="2350" y="339.84000000000003" as="sourcePoint" />
            <mxPoint x="2380" y="339.84000000000003" as="targetPoint" />
          </mxGeometry>
        </mxCell>
        <mxCell id="ELETVQiaOp1bO45lzPS6-12" value="" style="whiteSpace=wrap;html=1;" vertex="1" parent="1">
          <mxGeometry x="2410" y="325" width="20" height="20" as="geometry" />
        </mxCell>
        <mxCell id="ELETVQiaOp1bO45lzPS6-11" value="" style="whiteSpace=wrap;html=1;" vertex="1" parent="1">
          <mxGeometry x="2400" y="335" width="20" height="20" as="geometry" />
        </mxCell>
      </root>
    </mxGraphModel>
  </diagram>
</mxfile>
